<?xml version="1.0" encoding="UTF-8"?>
<svg id="_Слой_2" data-name="Слой 2" xmlns="http://www.w3.org/2000/svg" xmlns:xlink="http://www.w3.org/1999/xlink" viewBox="0 0 56.77 77.81">
  <defs>
    <style>
      .cls-1 {
        fill: url(#_Безымянный_градиент_98-2);
      }

      .cls-2 {
        fill: url(#_Безымянный_градиент_98-7);
        stroke: url(#_Безымянный_градиент_98-8);
      }

      .cls-2, .cls-3 {
        stroke-miterlimit: 10;
        stroke-width: .75px;
      }

      .cls-4 {
        fill: url(#_Безымянный_градиент_98);
      }

      .cls-3 {
        fill: url(#_Безымянный_градиент_98-5);
        stroke: url(#_Безымянный_градиент_98-6);
      }

      .cls-5 {
        fill: url(#_Безымянный_градиент_98-3);
      }

      .cls-6 {
        fill: url(#_Безымянный_градиент_98-4);
      }
    </style>
    <linearGradient id="_Безымянный_градиент_98" data-name="Безымянный градиент 98" x1=".1" y1="63.41" x2="18.69" y2="63.41" gradientUnits="userSpaceOnUse">
      <stop offset="0" stop-color="#173e4e"/>
      <stop offset="1" stop-color="#1b5963"/>
    </linearGradient>
    <linearGradient id="_Безымянный_градиент_98-2" data-name="Безымянный градиент 98" x1="13.27" y1="54.08" x2="36.6" y2="54.08" xlink:href="#_Безымянный_градиент_98"/>
    <linearGradient id="_Безымянный_градиент_98-3" data-name="Безымянный градиент 98" x1="25.25" y1="35.2" x2="46.58" y2="35.2" xlink:href="#_Безымянный_градиент_98"/>
    <linearGradient id="_Безымянный_градиент_98-4" data-name="Безымянный градиент 98" x1="0" y1="28.72" x2="26.97" y2="28.72" xlink:href="#_Безымянный_градиент_98"/>
    <linearGradient id="_Безымянный_градиент_98-5" data-name="Безымянный градиент 98" x1="29.53" y1="17.48" x2="40.61" y2="17.48" xlink:href="#_Безымянный_градиент_98"/>
    <linearGradient id="_Безымянный_градиент_98-6" data-name="Безымянный градиент 98" x1="29.15" y1="17.48" x2="40.99" y2="17.48" xlink:href="#_Безымянный_градиент_98"/>
    <linearGradient id="_Безымянный_градиент_98-7" data-name="Безымянный градиент 98" x1="26.12" y1="13.63" x2="56.4" y2="13.63" xlink:href="#_Безымянный_градиент_98"/>
    <linearGradient id="_Безымянный_градиент_98-8" data-name="Безымянный градиент 98" x1="25.66" y1="13.58" x2="56.77" y2="13.58" xlink:href="#_Безымянный_градиент_98"/>
  </defs>
  <g id="_Слой_1-2" data-name="Слой 1">
    <g>
      <g>
        <path class="cls-4" d="M6.78,77.08l-2.02.73c-1.8,0-3.26-.77-4.21-2.32-.09-.35-.31-.72-.39-1.06-.16-.74-.02-1.78.23-2.49l10.61-22.64.71-.3,6.54,2.98c.33.21.48.59.4.97-3.65,7.73-7.08,15.58-10.94,23.19l-.95.92ZM12.16,51.33l-9.91,21.21c-1.05,2.91,2.72,4.62,4.26,1.99l9.87-21.14-.15-.25-4.07-1.81Z"/>
        <path class="cls-1" d="M25.46,53.1l-.2-.23c-2.99-1.66-6.72-2.78-9.63-4.49-4.85-2.85-1.52-9.59,3.4-7.85l15.27,7.14c2.52,1.61,3.01,4.73,1.28,7.12-2.98,4.12-7.39,7.87-10.56,11.91-4.09,3.68-9.86-1.61-6.41-6.08l6.85-7.52ZM16.73,42.36c-1.62.66-1.96,2.88-.59,3.99,3.83,1.99,7.9,3.53,11.66,5.63.41.69.31.92-.11,1.49-2.06,2.75-5.06,5.36-7.28,8.06-.52.62-1.09,1.35-.9,2.22.25,1.19,1.14,2.16,2.39,2.21s1.61-.52,2.38-1.3c3.4-3.48,6.44-7.58,9.82-11.11,1.04-1.54.65-3.48-1.02-4.36l-14.62-6.83c-.52-.17-1.21-.21-1.72,0Z"/>
      </g>
      <path class="cls-5" d="M32.29,33.18l9.29-3.38c4.12-1.5,7.46,5.14,2.56,7.37-4.34,1.98-9.49,3.14-13.91,5.06-3.63.83-4.1-3.36-4.98-5.86l3.7-7.97c.34-.59,1.47-.38,1.67.16l1.68,4.62ZM29.67,31.61c-.2.02-.18.15-.26.27-.26.41-2.15,4.39-2.13,4.65.66,1.18.68,4.28,2.61,3.78,4.43-1.14,9.12-3.67,13.58-4.95,2.22-1.13,1.2-4.3-1.56-3.61-3.29.82-6.77,2.71-10.08,3.66-.14.15-.84-.19-.86-.23l-1.29-3.56Z"/>
      <path class="cls-6" d="M9.48,17.47c1.51-.74,2.92-.54,4.43.04,2.94,1.13,7.78,3.35,10.49,4.91,5.13,2.93,1.9,9.87-3.65,7.82-2.47-.92-4.9-2.54-7.4-3.37l-5.76,12.04c-3.13,3.59-8.83.44-7.36-4.14,2.58-4.71,4.37-10.56,7.05-15.14.53-.9,1.25-1.68,2.2-2.15ZM10.35,19.19c-.67.32-1.1.9-1.47,1.52-1.8,4.73-4.99,9.56-6.65,14.26-1.14,3.23,2.48,4.8,4.12,2.28l5.68-12.16c.38-.68.88-.65,1.53-.43,2.82.95,5.76,2.99,8.62,4,2.61.5,3.94-2.82,1.73-4.28l-11.51-5.37c-.68-.17-1.43-.12-2.06.18Z"/>
      <g>
        <path class="cls-3" d="M32.6,12.49c3.96-1.92,8.5,1.28,7.97,5.67-.47,3.86-4.86,6.09-8.24,4.15-3.83-2.2-3.72-7.89.27-9.83ZM33.22,13.73c-4.82,2.38-1.37,9.83,3.65,7.5,4.91-2.28,1.31-9.95-3.65-7.5Z"/>
        <path class="cls-2" d="M26.32,19.78c.4,1.67,1.21,3.17,2.33,4.36,3.54,3.75,9.33,3.47,12.92-.61.5-.57.95-1.21,1.32-1.89.04-.04.07-.1.09-.15,3.07-7.09,5.84-9.28,12.9-10.21.28-.04.5-.3.5-.61l.02-4.41c0-.33-.24-.58-.53-.56,0,0,0,0,0,0l-10.79.52c-.22.01-.42.17-.5.4l-.56,1.55-1.39.07v-1.3c0-.33-.23-.58-.53-.56,0,0,0,0,0,0l-6.88.33c-4.72.23-8.68,4.35-9.15,9.53-.06,1.24.01,2.43.26,3.57ZM29.48,10.73c1.52-1.74,3.58-2.77,5.72-2.87l6.35-.31v1.3c0,.33.23.58.53.56,0,0,0,0,0,0l2.29-.11c.22-.01.42-.17.5-.39l.56-1.55,9.89-.47-.02,3.28c-7.06,1.02-10.09,3.5-13.24,10.74-.01.02-.02.03-.03.05-2.32,4.3-7.29,5.89-11.09,3.55-3.8-2.34-5-7.73-2.68-12.03.34-.63.75-1.22,1.22-1.75h0ZM40.78.97l1.05-.43.83,2.9-1.05.43-.83-2.9ZM37.59,4.52l.54-1.05,2.48,1.46-.54,1.05-2.48-1.46ZM47.03,4.62l2.49-1.7.53,1-2.49,1.7-.53-1ZM44.44,3.52l.86-3.03,1.02.35-.86,3.03-1.02-.35Z"/>
      </g>
    </g>
  </g>
</svg>