<svg xmlns="http://www.w3.org/2000/svg" xmlns:xlink="http://www.w3.org/1999/xlink" viewBox="0 0 210.62 77.81">
    <defs>
        <linearGradient id="b" x1=".09" x2="18.67" y1="16.59" y2="16.59" data-name="Безымянный градиент"
                        gradientTransform="matrix(1 0 0 -1 0 80)" gradientUnits="userSpaceOnUse">
            <stop offset="0" stop-color="#173e4e"/>
            <stop offset="1" stop-color="#1b5963"/>
        </linearGradient>
        <linearGradient id="c" x1="13.26" x2="36.6" y1="25.91" y2="25.91" data-name="Безымянный градиент 2"
                        gradientTransform="matrix(1 0 0 -1 0 80)" gradientUnits="userSpaceOnUse">
            <stop offset="0" stop-color="#173e4e"/>
            <stop offset="1" stop-color="#1b5963"/>
        </linearGradient>
        <linearGradient id="d" x1="25.25" x2="46.58" y1="44.81" y2="44.81" data-name="Безымянный градиент 3"
                        gradientTransform="matrix(1 0 0 -1 0 80)" gradientUnits="userSpaceOnUse">
            <stop offset="0" stop-color="#173e4e"/>
            <stop offset="1" stop-color="#1b5963"/>
        </linearGradient>
        <linearGradient id="e" x1="0" x2="26.97" y1="51.27" y2="51.27" data-name="Безымянный градиент 4"
                        gradientTransform="matrix(1 0 0 -1 0 80)" gradientUnits="userSpaceOnUse">
            <stop offset="0" stop-color="#173e4e"/>
            <stop offset="1" stop-color="#1b5963"/>
        </linearGradient>
        <linearGradient id="f" x1="29.53" x2="40.61" y1="62.53" y2="62.53" data-name="Безымянный градиент 5"
                        gradientTransform="matrix(1 0 0 -1 0 80)" gradientUnits="userSpaceOnUse">
            <stop offset="0" stop-color="#173e4e"/>
            <stop offset="1" stop-color="#1b5963"/>
        </linearGradient>
        <linearGradient id="g" x1="29.16" x2="40.99" y1="62.53" y2="62.53" data-name="Безымянный градиент 6"
                        gradientTransform="matrix(1 0 0 -1 0 80)" gradientUnits="userSpaceOnUse">
            <stop offset="0" stop-color="#173e4e"/>
            <stop offset="1" stop-color="#1b5963"/>
        </linearGradient>
        <linearGradient id="h" x1="26.12" x2="56.4" y1="66.36" y2="66.36" data-name="Безымянный градиент 7"
                        gradientTransform="matrix(1 0 0 -1 0 80)" gradientUnits="userSpaceOnUse">
            <stop offset="0" stop-color="#173e4e"/>
            <stop offset="1" stop-color="#1b5963"/>
        </linearGradient>
        <linearGradient id="i" x1="25.67" x2="56.77" y1="66.42" y2="66.42" data-name="Безымянный градиент 8"
                        gradientTransform="matrix(1 0 0 -1 0 80)" gradientUnits="userSpaceOnUse">
            <stop offset="0" stop-color="#173e4e"/>
            <stop offset="1" stop-color="#1b5963"/>
        </linearGradient>
        <linearGradient id="j" x1="55.92" x2="81.94" y1="59.74" y2="59.74" data-name="Безымянный градиент 10"
                        gradientTransform="matrix(1 0 0 -1 0 80)" gradientUnits="userSpaceOnUse">
            <stop offset="0" stop-color="#173e4e"/>
            <stop offset="1" stop-color="#173e4e"/>
        </linearGradient>
        <linearGradient id="k" x1="82.43" x2="102.63" y1="62.52" y2="62.52" data-name="Безымянный градиент 11"
                        gradientTransform="matrix(1 0 0 -1 0 80)" gradientUnits="userSpaceOnUse">
            <stop offset="0" stop-color="#173e4e"/>
            <stop offset="1" stop-color="#173e4e"/>
        </linearGradient>
        <linearGradient id="l" x1="106.08" x2="120.7" y1="62.51" y2="62.51" data-name="Безымянный градиент 12"
                        gradientTransform="matrix(1 0 0 -1 0 80)" gradientUnits="userSpaceOnUse">
            <stop offset="0" stop-color="#173e4e"/>
            <stop offset="1" stop-color="#173e4e"/>
        </linearGradient>
        <linearGradient id="m" x1="122.82" x2="141.15" y1="62.51" y2="62.51" data-name="Безымянный градиент 13"
                        gradientTransform="matrix(1 0 0 -1 0 80)" gradientUnits="userSpaceOnUse">
            <stop offset="0" stop-color="#173e4e"/>
            <stop offset="1" stop-color="#173e4e"/>
        </linearGradient>
        <linearGradient id="n" x1="143.12" x2="163.32" y1="62.52" y2="62.52" data-name="Безымянный градиент 14"
                        gradientTransform="matrix(1 0 0 -1 0 80)" gradientUnits="userSpaceOnUse">
            <stop offset="0" stop-color="#173e4e"/>
            <stop offset="1" stop-color="#173e4e"/>
        </linearGradient>
        <linearGradient id="o" x1="166.84" x2="187.54" y1="62.51" y2="62.51" data-name="Безымянный градиент 15"
                        gradientTransform="matrix(1 0 0 -1 0 80)" gradientUnits="userSpaceOnUse">
            <stop offset="0" stop-color="#173e4e"/>
            <stop offset="1" stop-color="#173e4e"/>
        </linearGradient>
        <linearGradient id="p" x1="191.11" x2="210.62" y1="62.52" y2="62.52" data-name="Безымянный градиент 16"
                        gradientTransform="matrix(1 0 0 -1 0 80)" gradientUnits="userSpaceOnUse">
            <stop offset="0" stop-color="#173e4e"/>
            <stop offset="1" stop-color="#173e4e"/>
        </linearGradient>
        <linearGradient id="a" x1="165.89" x2="172.41" y1="49.9" y2="49.9" data-name="Безымянный градиент 9"
                        gradientUnits="userSpaceOnUse">
            <stop offset="0" stop-color="#173e4e"/>
            <stop offset="1" stop-color="#1b5963"/>
        </linearGradient>
        <linearGradient xlink:href="#a" id="q" x1="149.29" x2="158.05" y1="48.61" y2="48.61"
                        data-name="Безымянный градиент 9"/>
        <linearGradient xlink:href="#a" id="r" x1="74.52" x2="83.28" y1="48.61" y2="48.61"
                        data-name="Безымянный градиент 9"/>
        <linearGradient xlink:href="#a" id="s" x1="40.91" x2="190.74" y1="53.67" y2="53.67"
                        data-name="Безымянный градиент 9"/>
    </defs>
    <path fill="url(#b)"
          d="m6.78 77.08-2.02.73c-1.8 0-3.26-.77-4.21-2.32-.09-.35-.31-.72-.39-1.06-.16-.74-.02-1.78.23-2.49L11 49.3l.71-.3 6.54 2.98c.33.21.48.59.4.97C15 60.68 11.57 68.53 7.71 76.14l-.95.92.02.02Zm5.38-25.75L2.25 72.54c-1.05 2.91 2.72 4.62 4.26 1.99l9.87-21.14-.15-.25-4.07-1.81Z"/>
    <path fill="url(#c)"
          d="m25.46 53.1-.2-.23c-2.99-1.66-6.72-2.78-9.63-4.49-4.85-2.85-1.52-9.59 3.4-7.85l15.27 7.14c2.52 1.61 3.01 4.73 1.28 7.12-2.98 4.12-7.39 7.87-10.56 11.91-4.09 3.68-9.86-1.61-6.41-6.08l6.85-7.52Zm-8.73-10.74c-1.62.66-1.96 2.88-.59 3.99 3.83 1.99 7.9 3.53 11.66 5.63.41.69.31.92-.11 1.49-2.06 2.75-5.06 5.36-7.28 8.06-.52.62-1.09 1.35-.9 2.22.25 1.19 1.14 2.16 2.39 2.21s1.61-.52 2.38-1.3c3.4-3.48 6.44-7.58 9.82-11.11 1.04-1.54.65-3.48-1.02-4.36l-14.62-6.83c-.52-.17-1.21-.21-1.72 0h-.01Z"/>
    <path fill="url(#d)"
          d="m32.29 33.18 9.29-3.38c4.12-1.5 7.46 5.14 2.56 7.37-4.34 1.98-9.49 3.14-13.91 5.06-3.63.83-4.1-3.36-4.98-5.86l3.7-7.97c.34-.59 1.47-.38 1.67.16l1.68 4.62h-.01Zm-2.62-1.57c-.2.02-.18.15-.26.27-.26.41-2.15 4.39-2.13 4.65.66 1.18.68 4.28 2.61 3.78 4.43-1.14 9.12-3.67 13.58-4.95 2.22-1.13 1.2-4.3-1.56-3.61-3.29.82-6.77 2.71-10.08 3.66-.14.15-.84-.19-.86-.23l-1.29-3.56h-.01Z"/>
    <path fill="url(#e)"
          d="M9.48 17.47c1.51-.74 2.92-.54 4.43.04 2.94 1.13 7.78 3.35 10.49 4.91 5.13 2.93 1.9 9.87-3.65 7.82-2.47-.92-4.9-2.54-7.4-3.37L7.59 38.91c-3.13 3.59-8.83.44-7.36-4.14 2.58-4.71 4.37-10.56 7.05-15.14.53-.9 1.25-1.68 2.2-2.15Zm.87 1.72c-.67.32-1.1.9-1.47 1.52-1.8 4.73-4.99 9.56-6.65 14.26-1.14 3.23 2.48 4.8 4.12 2.28l5.68-12.16c.38-.68.88-.65 1.53-.43 2.82.95 5.76 2.99 8.62 4 2.61.5 3.94-2.82 1.73-4.28L12.4 19.01c-.68-.17-1.43-.12-2.06.18h.01Z"/>
    <g stroke-miterlimit="10" stroke-width=".75">
        <path fill="url(#f)" stroke="url(#g)"
              d="M32.6 12.49c3.96-1.92 8.5 1.28 7.97 5.67-.47 3.86-4.86 6.09-8.24 4.15-3.83-2.2-3.72-7.89.27-9.83Zm.62 1.24c-4.82 2.38-1.37 9.83 3.65 7.5 4.91-2.28 1.31-9.95-3.65-7.5Z"/>
        <path fill="url(#h)" stroke="url(#i)"
              d="M26.32 19.78c.4 1.67 1.21 3.17 2.33 4.36 3.54 3.75 9.33 3.47 12.92-.61.5-.57.95-1.21 1.32-1.89.04-.04.07-.1.09-.15 3.07-7.09 5.84-9.28 12.9-10.21.28-.04.5-.3.5-.61l.02-4.41c0-.33-.24-.58-.53-.56l-10.79.52c-.22.01-.42.17-.5.4l-.56 1.55-1.39.07v-1.3c0-.33-.23-.58-.53-.56l-6.88.33c-4.72.23-8.68 4.35-9.15 9.53-.06 1.24.01 2.43.26 3.57v-.03Zm3.16-9.05C31 8.99 33.06 7.96 35.2 7.86l6.35-.31v1.3c0 .33.23.58.53.56l2.29-.11a.58.58 0 0 0 .5-.39l.56-1.55 9.89-.47-.02 3.28c-7.06 1.02-10.09 3.5-13.24 10.74 0 .02-.02.03-.03.05-2.32 4.3-7.29 5.89-11.09 3.55s-5-7.73-2.68-12.03c.34-.63.75-1.22 1.22-1.75ZM40.78.97l1.05-.43.83 2.9-1.05.43-.83-2.9Zm-3.19 3.55.54-1.05 2.48 1.46-.54 1.05-2.48-1.46Zm9.44.1 2.49-1.7.53 1-2.49 1.7-.53-1Zm-2.59-1.1L45.3.49l1.02.35-.86 3.03-1.02-.35Z"/>
    </g>
    <path fill="url(#j)"
          d="M55.93 35.91v-8.93h2.52c.67-.84 1.24-1.72 1.71-2.65.47-.92.85-1.99 1.15-3.19.3-1.2.51-2.59.63-4.18.05-.62.1-1.28.14-1.96.05-.68.1-1.48.14-2.39.05-.91.1-2.02.16-3.31s.13-2.86.2-4.68h15.98v22.36h3.38v8.93H78.2v-5.58H59.66v5.58h-3.74.01Zm6.84-8.93h11.95v-19h-8.68c-.05 1.08-.1 2.15-.16 3.2-.06 1.06-.11 2.07-.16 3.04s-.11 1.89-.18 2.75c-.12 1.56-.31 2.95-.56 4.18-.25 1.22-.56 2.31-.94 3.26-.37.95-.8 1.81-1.28 2.57h.01Z"/>
    <path fill="url(#k)" d="M82.43 30.33V4.63h3.89v10.66h12.42V4.63h3.89v25.7h-3.89V18.59H86.32v11.74h-3.89Z"/>
    <path fill="url(#l)" d="M106.08 30.33V4.63h14.62v3.35h-10.69v7.31h10.04v3.31h-10.04v8.39h10.69v3.35h-14.62Z"/>
    <path fill="url(#m)"
          d="M122.82 30.33V4.63h7.67c3.31 0 5.78.49 7.42 1.46 1.63.97 2.45 2.61 2.45 4.91 0 1.03-.19 1.94-.58 2.72-.38.78-.93 1.42-1.64 1.93-.71.5-1.55.85-2.54 1.04v.18c1.01.17 1.94.47 2.79.92.85.44 1.52 1.09 2.02 1.93.49.84.74 1.93.74 3.28 0 1.56-.37 2.89-1.1 3.98-.73 1.09-1.78 1.93-3.13 2.5-1.36.58-2.97.86-4.84.86h-9.26Zm3.92-14.94h4.28c1.99 0 3.37-.33 4.14-.99s1.15-1.63 1.15-2.9-.46-2.23-1.37-2.81c-.91-.58-2.36-.86-4.36-.86h-3.85v7.56Zm0 11.74h4.75c2.04 0 3.47-.41 4.3-1.22.83-.82 1.24-1.9 1.24-3.24 0-.84-.18-1.57-.54-2.2-.36-.62-.97-1.11-1.82-1.46s-2-.52-3.44-.52h-4.5v8.64h.01Z"/>
    <path fill="url(#n)" d="M143.12 30.33V4.63h3.89v10.66h12.42V4.63h3.89v25.7h-3.89V18.59h-12.42v11.74h-3.89Z"/>
    <path fill="url(#o)"
          d="M166.85 30.33V4.63h3.89v13.64c0 .79 0 1.67-.04 2.65-.02.97-.05 1.85-.09 2.65-.04.79-.08 1.37-.13 1.73h.14l12.46-20.66h4.46v25.7h-3.89V16.98c0-.65 0-1.35.04-2.11.02-.76.05-1.49.09-2.21s.07-1.35.09-1.89c.02-.54.05-.93.07-1.17h-.14l-12.53 20.74h-4.43Z"/>
    <path fill="url(#p)"
          d="M191.11 30.33V4.63H195v25.7h-3.89Zm2.52-11.73v-3.35h6.01v3.35h-6.01Zm12.49 11.73-8.57-13v-.79l8.1-11.92h4.18l-8.57 12.49.04-.86 9.32 14.08h-4.5Z"/>
    <path fill="url(#a)"
          d="M171.65 47c-.07-.98-.12-1.88-.14-2.7h-.07c-.36.82-.76 1.69-1.19 2.61-.43.92-.9 1.88-1.4 2.86l-2.95 5.72h-.01l6.52.01-.54-5.76c-.07-.84-.14-1.75-.22-2.74Z"/>
    <path fill="url(#q)"
          d="M153.47 43.91h-2.16l-2.02 9.4 2.66-.01c1.73 0 3.07-.35 4.03-1.06.96-.71 1.6-1.78 1.91-3.22.34-1.63.11-2.89-.67-3.78-.78-.89-2.03-1.33-3.76-1.33Z"/>
    <path fill="url(#r)"
          d="M78.7 43.91h-2.16l-2.02 9.4h.01l2.66-.01c1.73 0 3.07-.35 4.03-1.06.96-.71 1.6-1.78 1.91-3.22.34-1.63.11-2.89-.67-3.78-.78-.89-2.03-1.33-3.76-1.33Z"/>
    <path fill="url(#s)"
          d="m53.28 39.42-12.37 28.5h137.27l12.56-28.5H53.28Zm5.75 26.91h-3.94l4.72-22.36h-6.8l.76-3.35h17.46l-.68 3.35h-6.8l-4.72 22.36Zm24.71-11.57c-1.68 1.19-3.92 1.78-6.73 1.78h-3.2l-2.05 9.79h-3.82l5.44-25.7h5.72c1.99 0 3.65.37 4.97 1.1 1.32.73 2.24 1.76 2.77 3.08.53 1.32.59 2.88.18 4.68-.5 2.33-1.6 4.09-3.28 5.27Zm17.86-.16h-8.89l-1.84 8.39h9.61l-.72 3.35H86.33l5.44-25.71h13.43l-.72 3.35h-9.54l-1.55 7.31h8.93l-.72 3.31Zm15.84 11.73 2.48-11.7h-10.44L107 66.33h-3.85l5.44-25.7h3.85l-2.23 10.62h10.44l2.23-10.62h3.85l-5.44 25.7h-3.85Zm23.69-11.73h-8.89l-1.84 8.39h9.61l-.72 3.35h-13.43l5.44-25.71h13.43l-.72 3.35h-9.54l-1.55 7.31h8.93l-.72 3.31Zm7.45 1.94-2.05 9.79h-3.82l5.44-25.7h5.72c1.99 0 3.65.37 4.97 1.1 1.32.73 2.24 1.76 2.77 3.08.53 1.32.59 2.88.18 4.68-.5 2.33-1.6 4.09-3.28 5.27-1.68 1.19-3.92 1.78-6.73 1.78h-3.2Zm24.94 9.79-.79-7.45h-8.57l-3.85 7.45h-4.14l13.82-25.7h4.32l2.99 25.7h-3.78Z"/>
</svg>