<svg id="SvgjsSvg1001" width="288" height="288" xmlns="http://www.w3.org/2000/svg" version="1.1" xmlns:xlink="http://www.w3.org/1999/xlink" xmlns:svgjs="http://svgjs.com/svgjs"><defs id="SvgjsDefs1002"></defs><g id="SvgjsG1008"><svg xmlns="http://www.w3.org/2000/svg" viewBox="0 0 64 64" width="288" height="288"><g data-name="Layer 2"><path fill="#007e9e" d="m60.407 19.507-1.935-7.222a.999.999 0 0 0-1.225-.707L37.85 16.775a1 1 0 0 0-.734.848l-.328 2.755-2.508.672-.571-2.13a1 1 0 0 0-1.225-.707l-12.381 3.318a17.023 17.023 0 1 0 20.688 21.352.993.993 0 0 0 .097-.28c2.404-12.827 6.464-17.533 18.885-21.893a1 1 0 0 0 .634-1.203Z" class="colorf23636 svgShape"></path><path fill="#025b69" d="M59.227 15.102c-15.652 6.536-20.291 11.275-22.625 23.724a.994.994 0 0 1-.097.279 17.003 17.003 0 0 1-24.793 9.832c-.16-.092-.306-.2-.463-.298a17.002 17.002 0 0 0 29.542-5.756.993.993 0 0 0 .097-.28c2.404-12.827 6.464-17.533 18.885-21.893a1 1 0 0 0 .634-1.202Z" class="colord32424 svgShape"></path><path fill="#018786" d="M32.697 35.78a8.476 8.476 0 1 0-.846 6.432 8.486 8.486 0 0 0 .846-6.433Z" class="colorb51f1f svgShape"></path></g><g data-name="Layer 3"><path d="M26.703 46.162a8.477 8.477 0 1 0-10.383-5.995 8.472 8.472 0 0 0 10.383 5.995Zm-3.87-14.445a6.477 6.477 0 1 1-4.581 7.933 6.485 6.485 0 0 1 4.58-7.933Z"></path><path d="M15.998 52.715a17.003 17.003 0 0 0 24.793-9.832.993.993 0 0 0 .097-.28c2.404-12.827 6.464-17.533 18.885-21.893a1 1 0 0 0 .634-1.202l-1.935-7.222a.999.999 0 0 0-1.225-.707L37.85 16.775a1 1 0 0 0-.734.848l-.328 2.755-2.508.672-.571-2.13a1 1 0 0 0-1.225-.707l-12.381 3.318A17.017 17.017 0 0 0 7.726 40.807a3.669 3.669 0 1 0 2.079 5.723 16.905 16.905 0 0 0 6.193 6.185ZM7.3 45.973a1.67 1.67 0 1 1 1.181-2.046A1.672 1.672 0 0 1 7.3 45.973Zm4.199-15.511a14.925 14.925 0 0 1 9.122-7l11.415-3.059.571 2.13a1 1 0 0 0 1.225.707l4.127-1.106a1.001 1.001 0 0 0 .734-.847l.328-2.756L56.8 13.768l1.438 5.366c-12.386 4.512-16.787 9.799-19.278 22.904a.9.9 0 0 0-.03.089 15.015 15.015 0 1 1-27.43-11.665ZM31.832 7.259l1.932-.518 1.382 5.159-1.932.518zM26.344 11.024 27.76 9.61l3.776 3.777-1.414 1.414zM23.475 17.03l.518-1.932 5.159 1.382-.518 1.932zM40.695 13.387l3.776-3.777 1.415 1.414-3.777 3.777zM37.083 11.9l1.382-5.16 1.932.519-1.382 5.159z"></path></g></svg></g></svg>